<?xml version="1.0" encoding="UTF-8"?>
<svg version="1.1" xmlns="http://www.w3.org/2000/svg" width="1920" height="1080">
<path d="M0 0 C633.6 0 1267.2 0 1920 0 C1920 356.4 1920 712.8 1920 1080 C1286.4 1080 652.8 1080 0 1080 C0 723.6 0 367.2 0 0 Z " fill="none" transform="translate(0,0)"/>
<path d="M0 0 C11.51763565 9.43775193 16.7236382 21.94523872 18.57421875 36.3359375 C19.81558594 36.73425781 21.05695312 37.13257813 22.3359375 37.54296875 C23.97796978 38.07780212 25.61989107 38.61297635 27.26171875 39.1484375 C28.07833984 39.40947266 28.89496094 39.67050781 29.73632812 39.93945312 C40.22648078 43.37954367 40.22648078 43.37954367 43.26953125 47.796875 C51.55107588 64.67674466 55.62547555 88.79254408 49.94921875 107.2109375 C44.26672249 121.05953851 32.70310685 128.13758098 20.29638672 135.32861328 C17.00651062 137.25291563 13.79468946 139.29849685 10.57421875 141.3359375 C11.25226562 141.66464844 11.9303125 141.99335938 12.62890625 142.33203125 C26.34413665 149.34161576 36.55350431 159.58276123 41.57421875 174.3359375 C42.62135877 179.30626649 42.88865612 184.27637681 43.13671875 189.3359375 C43.17917725 190.16520752 43.22163574 190.99447754 43.26538086 191.84887695 C43.60805927 199.01616478 43.67956885 206.16042546 43.57421875 213.3359375 C44.52296875 213.6246875 45.47171875 213.9134375 46.44921875 214.2109375 C49.57421875 215.3359375 49.57421875 215.3359375 51.57421875 217.3359375 C50.70142891 226.34490379 42.93908273 233.34991334 37.26513672 239.88037109 C33.71061341 243.98106377 30.23875093 248.13019961 26.88671875 252.3984375 C25.67435547 253.93177734 25.67435547 253.93177734 24.4375 255.49609375 C22.62703256 258.25544349 21.92563387 260.0898148 21.57421875 263.3359375 C22.23421875 263.6659375 22.89421875 263.9959375 23.57421875 264.3359375 C23.57421875 264.9959375 23.57421875 265.6559375 23.57421875 266.3359375 C24.39921875 266.4184375 25.22421875 266.5009375 26.07421875 266.5859375 C38.76650339 269.30571278 47.24849386 278.18596456 54.12109375 288.703125 C58.62682037 296.36286025 59.93473339 303.75255315 59.94921875 312.5234375 C59.97371094 313.28462891 59.99820313 314.04582031 60.0234375 314.83007812 C60.09110841 328.4657661 53.40623609 340.39306096 47.37451172 352.22241211 C46.06677441 354.78804244 44.77445694 357.36100054 43.484375 359.93554688 C42.65061879 361.58898531 41.81601347 363.2419959 40.98046875 364.89453125 C40.5980603 365.65398544 40.21565186 366.41343964 39.82165527 367.19590759 C38.13052358 370.50453763 36.40684558 373.67536314 34.29882812 376.73852539 C32.38983702 379.09399511 32.38983702 379.09399511 32.57421875 381.3359375 C34.0199398 382.34401857 35.50833563 383.29105924 37.01171875 384.2109375 C46.23430828 390.50322908 52.37327726 399.70739699 55.57421875 410.3359375 C55.79722656 411.03847656 56.02023437 411.74101563 56.25 412.46484375 C60.05189419 426.50857535 57.04708554 439.30234838 50.23828125 451.78515625 C49.83351563 452.46191406 49.42875 453.13867188 49.01171875 453.8359375 C46.80490665 457.54393527 45.64381084 461.19125956 44.44921875 465.3359375 C39.85014478 481.04453683 32.5952095 496.06735806 24.76171875 510.3984375 C24.33036621 511.18831055 23.89901367 511.97818359 23.45458984 512.79199219 C20.547439 517.96050779 17.24056248 522.67796224 13.57421875 527.3359375 C14.58742188 527.65046875 15.600625 527.965 16.64453125 528.2890625 C17.9962511 528.7208619 19.34780489 529.15318138 20.69921875 529.5859375 C21.69695312 529.89337891 21.69695312 529.89337891 22.71484375 530.20703125 C31.59478357 533.07995296 37.54148566 538.03242664 42.14453125 546.08203125 C54.44101832 570.82948387 54.30220285 599.92265734 45.859375 625.796875 C35.91027537 653.19469952 22.35146428 675.11793211 -1.42578125 692.3359375 C-1.09578125 693.3259375 -0.76578125 694.3159375 -0.42578125 695.3359375 C-14.46247297 702.36622222 -28.28738387 709.05468168 -43.42578125 713.3359375 C-44.68261719 713.71492187 -45.93945312 714.09390625 -47.234375 714.484375 C-57.3700869 716.87771719 -66.08868781 714.66720471 -75.80078125 711.5234375 C-88.84112374 707.40739332 -100.96165834 703.7841845 -114.73828125 704.0234375 C-115.82206055 704.0347168 -116.90583984 704.04599609 -118.02246094 704.05761719 C-144.50262243 704.50670056 -164.77361608 712.39395326 -185.41796875 728.69921875 C-254.02448032 782.52465263 -356.48658735 768.28051629 -442.30078125 758.7734375 C-443.11659668 758.67978912 -443.93241211 758.58614075 -444.77294922 758.48965454 C-453.59265261 757.45596766 -462.30345024 756.06100641 -471.015625 754.33984375 C-471.82703949 754.17955185 -472.63845398 754.01925995 -473.47445679 753.85411072 C-492.81051393 749.89126813 -510.26234535 741.30857751 -527.62890625 732.1328125 C-550.62618245 719.99535683 -550.62618245 719.99535683 -575.55078125 715.2109375 C-577.16339844 715.20707031 -577.16339844 715.20707031 -578.80859375 715.203125 C-581.48415302 715.30136368 -584.02311494 715.49536794 -586.671875 715.8125 C-591.89394335 716.43212359 -597.11073496 716.6391037 -602.36328125 716.8359375 C-607.70398077 717.03691156 -613.01041467 717.25889724 -618.32421875 717.84765625 C-642.76595033 720.42910456 -664.19266966 718.02958413 -683.97265625 702.65625 C-687.23850417 700.00484433 -690.34720906 697.20087763 -693.42578125 694.3359375 C-694.33199219 693.5109375 -695.23820313 692.6859375 -696.171875 691.8359375 C-706.28092478 682.23464821 -714.2971994 671.40028356 -714.84570312 657.12036133 C-714.87876355 654.76140598 -714.89413533 652.40215572 -714.89453125 650.04296875 C-714.90214478 648.77934006 -714.9097583 647.51571136 -714.91760254 646.21379089 C-714.92837161 643.54837335 -714.93265044 640.88384663 -714.92675781 638.21850586 C-714.92088704 634.8442274 -714.9513743 631.47140046 -714.99187469 628.09740162 C-715.02433683 624.82928879 -715.01963505 621.5612174 -715.01953125 618.29296875 C-715.03592651 617.10290726 -715.05232178 615.91284576 -715.06921387 614.6867218 C-714.96221921 601.4510544 -710.87905177 589.75698865 -701.55078125 580.2109375 C-696.30060832 574.49292738 -691.98228954 568.20098902 -687.60693359 561.80004883 C-682.47969444 554.30773604 -682.47969444 554.30773604 -679.59765625 550.83203125 C-674.51345002 544.67358144 -672.51151754 540.26546394 -671.7265625 532.29296875 C-670.58194973 521.04008738 -662.97150507 511.05374086 -656.11328125 502.4609375 C-655.64140381 501.86893555 -655.16952637 501.27693359 -654.68334961 500.66699219 C-653.7268922 499.46926771 -652.77026843 498.27167606 -651.81347656 497.07421875 C-651.35553711 496.50058594 -650.89759766 495.92695312 -650.42578125 495.3359375 C-650.00393555 494.80871094 -649.58208984 494.28148437 -649.14746094 493.73828125 C-640.97719141 483.38105316 -635.52400504 471.85424327 -629.75976562 460.04101562 C-620.18909835 440.63343996 -607.13715708 422.60625979 -592.30078125 406.8984375 C-585.23866694 399.38383362 -579.31185851 390.98837836 -573.19335938 382.70703125 C-569.47286211 377.71622056 -565.59426798 372.85023002 -561.72314453 367.97607422 C-560.40656223 366.31164066 -559.10031095 364.63958776 -557.796875 362.96484375 C-551.09073702 354.35669042 -544.18896751 345.92140115 -537.22851562 337.51806641 C-535.43891962 335.3518409 -533.65758447 333.17910196 -531.87890625 331.00390625 C-521.99224245 318.92233733 -511.87070486 307.07283975 -501.3828125 295.5078125 C-499.6416124 293.57546269 -497.93546296 291.6193582 -496.23828125 289.6484375 C-484.94811101 276.7451445 -472.85196791 264.60266852 -460.71923828 252.49902344 C-458.03040167 249.81559894 -455.34702169 247.12679958 -452.6640625 244.4375 C-450.9313105 242.70540807 -449.19824872 240.97362596 -447.46484375 239.2421875 C-446.28023056 238.05453796 -446.28023056 238.05453796 -445.07168579 236.84289551 C-440.86738702 232.65614899 -436.58390877 228.62873135 -432.07772827 224.7677002 C-430.09372995 223.04814457 -428.2489798 221.22425028 -426.42578125 219.3359375 C-423.29732161 216.16503752 -420.05722773 213.2102379 -416.6796875 210.30859375 C-414.46602515 208.37115963 -412.30353103 206.38464562 -410.1472168 204.38378906 C-404.95927399 199.5715448 -399.6457001 195.01129723 -394.12890625 190.57421875 C-391.367623 188.28778045 -388.74039903 185.89985532 -386.11328125 183.4609375 C-381.56167708 179.27681412 -376.84322376 175.42604116 -371.95849609 171.64624023 C-368.15764522 168.70428958 -364.41670398 165.70331945 -360.70825195 162.64575195 C-351.97435383 155.45319364 -342.9606001 148.69933535 -333.80175781 142.05908203 C-331.49281417 140.38455221 -329.18933314 138.70274937 -326.88671875 137.01953125 C-299.54834459 117.08785524 -271.29629826 97.98328392 -242.42578125 80.3359375 C-241.51586426 79.7795459 -240.60594727 79.2231543 -239.66845703 78.64990234 C-218.7196258 65.88415427 -197.46331348 53.64132242 -175.90307617 41.93798828 C-171.625126 39.60113049 -167.49316304 37.15521735 -163.42578125 34.4609375 C-154.55316947 28.71983576 -145.97979554 26.08901476 -135.6496582 24.57373047 C-129.97320679 23.65502061 -125.82884106 21.6400975 -120.91015625 18.63671875 C-115.62168081 15.86775284 -110.29247755 15.97464144 -104.55078125 17.0859375 C-98.60222702 17.92903967 -93.62963305 14.88127246 -88.42578125 12.3359375 C-87.62237305 11.94792969 -86.81896484 11.55992187 -85.99121094 11.16015625 C-77.14118151 6.86962569 -68.34321847 2.54370214 -59.89208984 -2.49536133 C-40.02798551 -14.30185096 -18.88753286 -12.95666505 0 0 Z " fill="#FFF234" transform="translate(1287.42578125,175.6640625)"/>
<path d="M0 0 C0.66 0.33 1.32 0.66 2 1 C-21.38006448 23.23116696 -50.83496249 42.80923849 -79.80981445 56.94384766 C-99.03431657 66.2345165 -99.03431657 66.2345165 -116 79 C-116.63035156 79.55171875 -117.26070312 80.1034375 -117.91015625 80.671875 C-133.36057273 95.01189194 -144.80551452 114.82023215 -155.8515625 132.55078125 C-160.91871561 140.61372076 -166.34192398 146.26146797 -174 152 C-176.32130719 153.92429599 -178.59787682 155.8987589 -180.875 157.875 C-182.06592139 158.90030303 -183.25732844 159.92504223 -184.44921875 160.94921875 C-185.03880371 161.45630371 -185.62838867 161.96338867 -186.23583984 162.48583984 C-189.04451174 164.89649347 -191.86360241 167.29470929 -194.6875 169.6875 C-195.22415283 170.14237793 -195.76080566 170.59725586 -196.3137207 171.06591797 C-199.69471904 173.92235867 -203.11722851 176.72107758 -206.5625 179.5 C-211.63319551 183.6245599 -216.43192479 187.99616599 -221.22265625 192.4375 C-224.11230673 195.10361915 -227.05509004 197.69598353 -230.0234375 200.2734375 C-237.60469594 206.8958016 -245.00385527 213.72596404 -252.41162109 220.54101562 C-254.03865783 222.03550864 -255.66950527 223.52576142 -257.30078125 225.015625 C-262.35290135 229.64135892 -267.33291775 234.28926403 -272.125 239.1875 C-276.31561089 243.43963699 -280.76846148 247.20323481 -285.45703125 250.89453125 C-288.146297 253.12112762 -290.56624357 255.49841757 -293 258 C-296.46947252 261.53964163 -299.94807568 265.00335718 -303.70703125 268.23828125 C-308.0262034 271.99659305 -312.21239053 275.88223107 -316.375 279.8125 C-317.11741943 280.51173584 -317.85983887 281.21097168 -318.62475586 281.93139648 C-322.66605195 285.75055131 -326.65205595 289.60961702 -330.5625 293.5625 C-335.00296205 298.04758981 -339.64178809 302.1933838 -344.48339844 306.23974609 C-352.0557348 312.56963994 -359.24974059 319.09872985 -366.17041016 326.13891602 C-369.02908863 329.04323318 -371.88380519 331.86780992 -375 334.5 C-384.04191006 342.17488262 -392.36670595 350.93854126 -400 360 C-400.88524476 361.0117083 -401.77211968 362.02199135 -402.66015625 363.03125 C-409.72489014 371.10108172 -416.23109313 379.48379001 -422.59912109 388.10986328 C-428.87122895 396.57250863 -435.41439729 404.80640361 -442.08886719 412.953125 C-444.83717333 416.31307198 -447.55237758 419.69126925 -450.203125 423.12890625 C-450.70658447 423.78060791 -451.21004395 424.43230957 -451.72875977 425.10375977 C-452.68255297 426.34361112 -453.63119226 427.58744887 -454.57397461 428.83569336 C-455.67060687 430.25991552 -456.82967505 431.63568676 -458 433 C-458.66 433 -459.32 433 -460 433 C-455.61241332 417.57854148 -445.85141232 402.71485636 -436.39746094 389.89599609 C-434.94753353 387.92881646 -433.52435476 385.94390314 -432.1015625 383.95703125 C-426.84055973 376.69613566 -421.28442522 370.02885791 -415.07128906 363.56982422 C-408.26980232 356.37074315 -402.59062288 348.3068974 -396.73535156 340.33886719 C-393.03508563 335.35173331 -389.15908301 330.50245225 -385.29736328 325.64013672 C-383.98078098 323.97570316 -382.6745297 322.30365026 -381.37109375 320.62890625 C-374.66495577 312.02075292 -367.76318626 303.58546365 -360.80273438 295.18212891 C-359.01313837 293.0159034 -357.23180322 290.84316446 -355.453125 288.66796875 C-345.5664612 276.58639983 -335.44492361 264.73690225 -324.95703125 253.171875 C-323.21583115 251.23952519 -321.50968171 249.2834207 -319.8125 247.3125 C-308.52232976 234.409207 -296.42618666 222.26673102 -284.29345703 210.16308594 C-281.60462042 207.47966144 -278.92124044 204.79086208 -276.23828125 202.1015625 C-274.50552925 200.36947057 -272.77246747 198.63768846 -271.0390625 196.90625 C-270.24932037 196.11448364 -269.45957825 195.32271729 -268.64590454 194.50695801 C-264.44160577 190.32021149 -260.15812752 186.29279385 -255.65194702 182.4317627 C-253.6679487 180.71220707 -251.82319855 178.88831278 -250 177 C-246.87154036 173.82910002 -243.63144648 170.8743004 -240.25390625 167.97265625 C-238.0402439 166.03522213 -235.87774978 164.04870812 -233.72143555 162.04785156 C-228.53349274 157.2356073 -223.21991885 152.67535973 -217.703125 148.23828125 C-214.94184175 145.95184295 -212.31461778 143.56391782 -209.6875 141.125 C-205.13589583 136.94087662 -200.41744251 133.09010366 -195.53271484 129.31030273 C-191.73186397 126.36835208 -187.99092273 123.36738195 -184.2824707 120.30981445 C-175.54857258 113.11725614 -166.53481885 106.36339785 -157.37597656 99.72314453 C-155.06703292 98.04861471 -152.76355189 96.36681187 -150.4609375 94.68359375 C-123.12256334 74.75191774 -94.87051701 55.64734642 -66 38 C-64.63512451 37.1654126 -64.63512451 37.1654126 -63.24267578 36.31396484 C-51.01535052 28.86290697 -38.67889582 21.60846136 -26.25 14.5 C-25.12086182 13.85385742 -23.99172363 13.20771484 -22.82836914 12.54199219 C-19.55957411 10.68126754 -16.28214415 8.83706464 -13 7 C-12.40388916 6.66307129 -11.80777832 6.32614258 -11.19360352 5.97900391 C-9.39923602 4.96718728 -7.59900491 3.96666147 -5.796875 2.96875 C-4.73307617 2.37513672 -3.66927734 1.78152344 -2.57324219 1.16992188 C-1.72407227 0.78384766 -0.87490234 0.39777344 0 0 Z " fill="#FFF899" transform="translate(1111,218)"/>
<path d="M0 0 C2.68970699 1.73908289 4.81605485 3.66077435 7 6 C7.64453125 6.63292969 8.2890625 7.26585937 8.953125 7.91796875 C16.4543316 17.02004261 14.82249523 28.71903588 14.91992188 39.890625 C15.0262166 44.01797146 15.48109481 48.04154079 16.0625 52.125 C17.13329304 60.12818653 17.19508871 67.94717178 17 76 C15.06077578 75.54901762 13.12366406 75.08894441 11.1875 74.625 C9.56908203 74.24214844 9.56908203 74.24214844 7.91796875 73.8515625 C5 73 5 73 2 71 C1.48046875 68.6015625 1.48046875 68.6015625 1.1875 65.625 C-0.46658807 54.30398742 -6.55685172 43.54671026 -15.24609375 36.06640625 C-22.9933593 30.30244068 -32.22860691 25.54285517 -42 25 C-42.71027344 24.94972656 -43.42054687 24.89945313 -44.15234375 24.84765625 C-56.8799838 24.3319496 -67.70783036 28.27034004 -78.5625 34.5625 C-80.81818768 35.82152277 -83.07603512 37.07668324 -85.3359375 38.328125 C-86.44936523 38.94751953 -87.56279297 39.56691406 -88.70996094 40.20507812 C-93.63218764 42.89046034 -98.63387472 45.38521816 -103.6875 47.8125 C-104.52933838 48.22636963 -105.37117676 48.64023926 -106.23852539 49.06665039 C-112.45334665 52.02190134 -117.89878391 53.59630759 -124.8125 52.3125 C-131.51811443 51.50496412 -136.94539297 54.01450543 -142.5 57.625 C-147.61116373 60.43614005 -153.37299269 61.56549181 -159 60 C-145.20049329 53.01107921 -131.12487643 46.84556456 -116.8125 41 C-115.55357941 40.48578491 -115.55357941 40.48578491 -114.26922607 39.96118164 C-104.58053994 36.01219223 -94.86219803 32.14778518 -85.10498047 28.37158203 C-70.82926548 22.8442928 -57.63273616 16.67294357 -44.36669922 9.06274414 C-14.22896842 -8.20803061 -14.22896842 -8.20803061 0 0 Z " fill="#FFF899" transform="translate(1303,141)"/>
<path d="M0 0 C0.99 0.495 0.99 0.495 2 1 C0.83687329 2.19096751 -0.33076672 3.37752704 -1.5 4.5625 C-2.1496875 5.22378906 -2.799375 5.88507813 -3.46875 6.56640625 C-5.52345612 8.5418413 -7.6071043 10.42153704 -9.7578125 12.2890625 C-14.06201897 16.02842958 -18.22964869 19.89852596 -22.375 23.8125 C-23.11741943 24.51173584 -23.85983887 25.21097168 -24.62475586 25.93139648 C-28.66605195 29.75055131 -32.65205595 33.60961702 -36.5625 37.5625 C-41.00296205 42.04758981 -45.64178809 46.1933838 -50.48339844 50.23974609 C-58.0557348 56.56963994 -65.24974059 63.09872985 -72.17041016 70.13891602 C-75.02908863 73.04323318 -77.88380519 75.86780992 -81 78.5 C-90.04191006 86.17488262 -98.36670595 94.93854126 -106 104 C-106.88524476 105.0117083 -107.77211968 106.02199135 -108.66015625 107.03125 C-115.72489014 115.10108172 -122.23109313 123.48379001 -128.59912109 132.10986328 C-134.87122895 140.57250863 -141.41439729 148.80640361 -148.08886719 156.953125 C-150.83717333 160.31307198 -153.55237758 163.69126925 -156.203125 167.12890625 C-156.95831421 168.10645874 -156.95831421 168.10645874 -157.72875977 169.10375977 C-158.68255297 170.34361112 -159.63119226 171.58744887 -160.57397461 172.83569336 C-161.67060687 174.25991552 -162.82967505 175.63568676 -164 177 C-164.66 177 -165.32 177 -166 177 C-161.61241332 161.57854148 -151.85141232 146.71485636 -142.39746094 133.89599609 C-140.94753353 131.92881646 -139.52435476 129.94390314 -138.1015625 127.95703125 C-132.17672841 119.78013571 -125.80694206 112.26892962 -118.8125 104.98828125 C-117.04203151 103.14290493 -115.4557637 101.31697849 -113.85546875 99.30859375 C-112.13102992 97.16302881 -110.42349597 95.50252496 -108.3125 93.75 C-105.23194665 91.12095632 -102.34166042 88.38583131 -99.5 85.5 C-95.49290064 81.45201187 -91.34079534 77.68445515 -87 74 C-86.04351563 73.17757812 -85.08703125 72.35515625 -84.1015625 71.5078125 C-79.00888849 67.14748511 -73.88185662 62.88021081 -68.55053711 58.81347656 C-61.9328398 53.75620985 -56.39429252 48.38265076 -51 42 C-48.20768717 38.939039 -44.8946422 36.52253697 -41.625 34 C-36.74438779 30.20333179 -31.95189738 26.32841056 -27.25 22.3125 C-22.73164263 18.45335175 -18.15650804 14.68369552 -13.5 10.9921875 C-8.961503 7.3755727 -4.48455605 3.68313349 0 0 Z " fill="#FFF466" transform="translate(817,474)"/>
<path d="M0 0 C0 4.22412126 -2.34233229 6.46715767 -4.8125 9.6875 C-5.83010685 11.04408855 -6.84567079 12.4022115 -7.859375 13.76171875 C-8.38208984 14.46216309 -8.90480469 15.16260742 -9.44335938 15.88427734 C-21.34559658 32.0613143 -32.13310189 49.12118678 -43 66 C-43.33 65.34 -43.66 64.68 -44 64 C-42.46827408 60.22671333 -40.38991868 56.69520749 -38.4375 53.125 C-37.55916504 51.51298706 -37.55916504 51.51298706 -36.66308594 49.8684082 C-26.53549875 31.63955804 -13.97358783 15.42044434 0 0 Z " fill="#FFF79A" transform="translate(698,579)"/>
<path d="M0 0 C-0.37215436 6.08627442 -2.15824245 9.29004052 -6 13.9375 C-6.4640625 14.52595703 -6.928125 15.11441406 -7.40625 15.72070312 C-8.56905525 17.17589981 -9.78045305 18.5920161 -11 20 C-11.33 20 -11.66 20 -12 20 C-12.60867119 13.18288268 -11.32819706 9.31615509 -7 4 C-2.7 0 -2.7 0 0 0 Z " fill="#FFF89A" transform="translate(615,713)"/>
<path d="M0 0 C0.99 0.66 1.98 1.32 3 2 C-0.20636973 2.67635064 -3.41536689 3.33932448 -6.625 4 C-7.98044922 4.28617188 -7.98044922 4.28617188 -9.36328125 4.578125 C-13.98203556 5.52210398 -18.25647172 6.25214768 -23 6 C-17.08442327 -0.61935917 -8.35303973 -2.17638833 0 0 Z " fill="#FFF466" transform="translate(1183,193)"/>
<path d="M0 0 C2.375 -0.1875 2.375 -0.1875 5 0 C5.66 0.99 6.32 1.98 7 3 C5.02 4.32 3.04 5.64 1 7 C-1 4 -1 4 -0.625 1.8125 C-0.41875 1.214375 -0.2125 0.61625 0 0 Z " fill="#FFF24E" transform="translate(769,513)"/>
</svg>
